<svg width="109" height="109" viewBox="0 0 109 109" fill="none" xmlns="http://www.w3.org/2000/svg">
<g clip-path="url(#clip0_487_402)">
<path d="M60.029 5.18461L56.2414 4.92116L56.1205 6.65866L59.4366 6.88931L59.3454 8.2014L56.0293 7.97075L55.809 11.1382L54.2406 11.0291L54.7653 3.48461L60.1213 3.85714L60.029 5.18461Z" fill="#1D2024"/>
<path d="M62.213 4.201L63.7595 4.48375L62.3975 11.9333L60.851 11.6505L62.213 4.201Z" fill="#1D2024"/>
<path d="M69.6499 13.9473L68.1393 13.4759L66.7893 7.41951L65.1868 12.5545L63.7792 12.1152L66.0353 4.88604L67.6194 5.38041L68.9234 11.3255L70.4983 6.27885L71.9059 6.71812L69.6499 13.9473Z" fill="#1D2024"/>
<path d="M73.673 15.8801L70.771 14.3895L74.2312 7.65317L77.1332 9.14384C77.5475 9.36434 77.8698 9.5915 78.1001 9.82531C78.4925 10.2233 78.7285 10.7045 78.8082 11.2691C78.8706 11.7248 78.8443 12.1695 78.7293 12.6033C78.6143 13.0371 78.466 13.4307 78.2845 13.7841C77.8244 14.6799 77.2549 15.3462 76.5762 15.783C75.6583 16.3705 74.6906 16.4028 73.673 15.8801ZM77.2971 11.3998C77.2686 10.923 76.9344 10.5204 76.2946 10.1917L74.9967 9.52502L72.7384 13.9214L74.0363 14.5881C74.7005 14.9293 75.3318 14.8396 75.9303 14.3192C76.2582 14.0332 76.5497 13.642 76.8048 13.1453C77.1569 12.4598 77.321 11.878 77.2971 11.3998Z" fill="#1D2024"/>
<path d="M82.354 16.2763C82.5896 16.247 82.7992 16.304 82.9829 16.4471C83.1694 16.5923 83.2786 16.7837 83.3106 17.0214C83.3447 17.2563 83.2891 17.467 83.1439 17.6535C82.9987 17.8399 82.8083 17.9478 82.5727 17.9771C82.3393 18.0036 82.1294 17.9443 81.9429 17.7991C81.7565 17.6539 81.6462 17.4638 81.6121 17.2288C81.5828 16.9933 81.6408 16.7823 81.786 16.5959C81.9291 16.4121 82.1185 16.3056 82.354 16.2763Z" fill="#1D2024"/>
<path d="M90.1052 25.065L87.6596 22.3171L86.205 23.6116L88.9922 26.7434L87.9752 27.6485L84.1599 23.3616L89.8169 18.3269L93.5093 22.4757L92.5076 23.3672L89.8434 20.3736L88.6421 21.4427L91.0877 24.1906L90.1052 25.065Z" fill="#1D2024"/>
<path d="M91.9617 33.7294L90.9301 32.1082L92.3339 29.51L89.3415 29.6115L88.3541 28.0596L92.9168 28.043L94.8069 24.094L95.8218 25.6891L94.4709 28.1503L97.2919 27.9995L98.2738 29.5427L93.9479 29.5487L91.9617 33.7294Z" fill="#1D2024"/>
<path d="M96.0499 36.2404L95.4124 34.7641L92.9125 35.8435L92.2893 34.4002L99.2418 31.3981L100.549 34.4262C100.851 35.1243 100.912 35.7583 100.733 36.3282C100.553 36.898 100.088 37.3452 99.3365 37.6698C98.5158 38.0241 97.846 38.0671 97.3272 37.7987C96.8083 37.5302 96.3826 37.0108 96.0499 36.2404ZM97.7913 36.2944C98.0394 36.4111 98.3443 36.3914 98.7059 36.2352C99.0675 36.0791 99.2839 35.8718 99.3552 35.6135C99.4278 35.3583 99.3901 35.0593 99.2421 34.7165L98.6576 33.3628L96.6105 34.2467L97.195 35.6005C97.343 35.9432 97.5418 36.1745 97.7913 36.2944Z" fill="#1D2024"/>
<path d="M102.229 38.7902L102.625 40.3221L96.6116 41.8785L97.5514 45.5094L96.2333 45.8505L94.8971 40.6877L102.229 38.7902Z" fill="#1D2024"/>
<path d="M96.5569 50.3125C96.4652 49.234 96.6886 48.3848 97.2271 47.765C97.8822 46.9392 98.8872 46.4687 100.242 46.3535C101.624 46.2359 102.694 46.5299 103.452 47.2355C104.088 47.7555 104.451 48.5547 104.543 49.6332C104.635 50.7116 104.411 51.5608 103.873 52.1807C103.245 53.0007 102.24 53.4694 100.857 53.587C99.5025 53.7023 98.4326 53.41 97.6478 52.7102C97.0123 52.1901 96.6487 51.3909 96.5569 50.3125ZM98.7109 51.6297C99.2027 51.9557 99.8735 52.0826 100.723 52.0103C101.57 51.9383 102.208 51.6984 102.637 51.2906C103.07 50.886 103.26 50.3714 103.207 49.7468C103.154 49.1223 102.881 48.6436 102.389 48.3108C101.896 47.978 101.225 47.8477 100.375 47.92C99.5256 47.9923 98.8861 48.234 98.457 48.6452C98.0279 49.0564 97.8399 49.5743 97.8931 50.1988C97.9462 50.8234 98.2188 51.3003 98.7109 51.6297Z" fill="#1D2024"/>
<path d="M99.6919 58.4202L99.8429 56.7934L96.886 56.5189L97.0289 54.9791L104.57 55.679L104.226 59.3777C104.167 59.9054 104.064 60.3052 103.919 60.5772C103.773 60.8526 103.575 61.0784 103.324 61.2547C103.118 61.4007 102.895 61.5107 102.654 61.5846C102.413 61.6586 102.144 61.6818 101.848 61.6543C101.49 61.621 101.145 61.4979 100.814 61.2848C100.486 61.0721 100.27 60.7511 100.166 60.3217C99.9934 60.6566 99.7711 60.8836 99.4986 61.0028C99.2292 61.1257 98.8302 61.1626 98.3016 61.1136L97.7951 61.0666C97.4506 61.0346 97.2158 61.0265 97.0904 61.0424C96.8922 61.0653 96.7401 61.1475 96.6341 61.289L96.4448 61.2715L96.6058 59.5372C96.7774 59.505 96.9152 59.4834 97.0195 59.4724C97.2347 59.4511 97.4533 59.4491 97.6753 59.4662L98.3771 59.521C98.8587 59.5589 99.1875 59.4999 99.3636 59.3443C99.5394 59.1921 99.6488 58.884 99.6919 58.4202ZM100.974 59.5041C101.088 59.8312 101.357 60.0143 101.78 60.0536C102.237 60.096 102.558 59.9727 102.743 59.6837C102.847 59.5214 102.915 59.2698 102.947 58.9287L103.117 57.0973L101.091 56.9092L100.925 58.6946C100.892 59.0493 100.909 59.3192 100.974 59.5041Z" fill="#1D2024"/>
<path d="M98.1019 68.1848L99.0371 64.627L97.1539 64.132L96.088 68.1866L94.7713 67.8405L96.2303 62.2902L103.554 64.2155L102.142 69.5869L100.846 69.246L101.864 65.3702L100.309 64.9614L99.3739 68.5192L98.1019 68.1848Z" fill="#1D2024"/>
<path d="M96.9662 73.6666C97.0454 73.8903 97.035 74.1073 96.9347 74.3175C96.833 74.5308 96.6696 74.6787 96.4444 74.7611C96.2223 74.8449 96.0046 74.836 95.7912 74.7343C95.5779 74.6326 95.4316 74.4699 95.3523 74.2461C95.2761 74.0239 95.2889 73.8061 95.3906 73.5928C95.4923 73.3794 95.6542 73.2308 95.8763 73.147C96.1 73.0677 96.3185 73.0789 96.5319 73.1806C96.7421 73.2809 96.8869 73.4428 96.9662 73.6666Z" fill="#1D2024"/>
<path d="M90.0736 83.0726L92.2267 80.0899L90.6478 78.9502L88.194 82.3495L87.0901 81.5526L90.449 76.8994L96.5894 81.3319L93.3387 85.8351L92.2515 85.0502L94.597 81.8009L93.2931 80.8597L91.14 83.8424L90.0736 83.0726Z" fill="#1D2024"/>
<path d="M82.0075 86.7123L83.1345 85.6016L89.1133 87.2617L85.3374 83.4305L86.3876 82.3954L91.7035 87.7891L90.5215 88.954L84.6625 87.3057L88.3736 91.071L87.3234 92.1061L82.0075 86.7123Z" fill="#1D2024"/>
<path d="M80.126 90.9389L83.2263 95.2338L81.9432 96.16L78.858 91.8859C78.4811 91.3638 78.2726 90.8848 78.2326 90.449C78.1652 89.712 78.5301 89.0557 79.3271 88.4804C80.1242 87.905 80.8091 87.7274 81.382 87.9475C81.9569 88.1704 82.5049 88.6429 83.0262 89.365L83.1284 89.5066L81.9162 90.3817L81.8139 90.24C81.46 89.7731 81.1671 89.4756 80.9351 89.3473C80.7023 89.2239 80.4332 89.2724 80.1277 89.4929C79.825 89.7114 79.7012 89.9613 79.7564 90.2425C79.7883 90.4096 79.9115 90.6417 80.126 90.9389Z" fill="#1D2024"/>
<path d="M73.1647 92.2305C74.1311 91.7431 75.0023 91.6336 75.7783 91.9021C76.7888 92.2019 77.6002 92.9588 78.2126 94.1729C78.8372 95.4115 78.9636 96.514 78.5916 97.4803C78.3462 98.2639 77.7403 98.8994 76.7739 99.3868C75.8075 99.8741 74.9363 99.9836 74.1603 99.7152C73.1652 99.4383 72.3553 98.6806 71.7306 97.442C71.1183 96.2279 70.9904 95.1262 71.347 94.137C71.5924 93.3534 72.1983 92.7179 73.1647 92.2305ZM72.746 94.7203C72.627 95.2982 72.7595 95.9679 73.1435 96.7294C73.5261 97.4879 73.9866 97.9902 74.5251 98.2365C75.0621 98.4874 75.6104 98.4717 76.1701 98.1895C76.7297 97.9072 77.0721 97.4756 77.1972 96.8946C77.3223 96.3136 77.1929 95.6424 76.8088 94.8809C76.4248 94.1194 75.962 93.6163 75.4204 93.3715C74.8788 93.1268 74.3282 93.1455 73.7686 93.4278C73.2089 93.7101 72.868 94.1409 72.746 94.7203Z" fill="#1D2024"/>
<path d="M65.4824 103.347L66.5319 98.088L65.7045 95.3646L67.2186 94.9046L68.046 97.628L71.9271 101.389L70.1426 101.931L67.6796 99.2321L67.198 102.826L65.4824 103.347Z" fill="#1D2024"/>
<path d="M59.908 100.898C59.7599 101.083 59.5702 101.189 59.3387 101.215C59.1039 101.241 58.892 101.18 58.7031 101.033C58.5145 100.889 58.4071 100.699 58.3807 100.464C58.3544 100.229 58.4152 100.019 58.5633 99.8335C58.7117 99.6514 58.9034 99.5472 59.1382 99.5208C59.3731 99.4945 59.5848 99.5534 59.7733 99.6977C59.9588 99.8458 60.0647 100.037 60.0911 100.272C60.1171 100.504 60.0561 100.712 59.908 100.898Z" fill="#1D2024"/>
<path d="M47.7493 102.888L51.5369 103.151L51.6578 101.414L48.3417 101.183L48.433 99.871L51.7491 100.102L51.9694 96.9342L53.5377 97.0433L53.013 104.588L47.657 104.215L47.7493 102.888Z" fill="#1D2024"/>
<path d="M45.8546 103.895L44.307 103.618L45.6405 96.1631L47.1881 96.4399L45.8546 103.895Z" fill="#1D2024"/>
<path d="M38.459 94.1855L39.9713 94.6512L41.3442 100.702L42.9273 95.5614L44.3365 95.9954L42.1078 103.233L40.5218 102.745L39.1954 96.8045L37.6395 101.857L36.2303 101.423L38.459 94.1855Z" fill="#1D2024"/>
<path d="M34.4 92.2435L37.3075 93.7234L33.8722 100.472L30.9647 98.9926C30.5497 98.7736 30.2265 98.5477 29.9954 98.3147C29.6015 97.9182 29.3636 97.4378 29.2819 96.8735C29.2178 96.4181 29.2424 95.9733 29.3558 95.5391C29.4692 95.1048 29.616 94.7107 29.7963 94.3566C30.2531 93.4592 30.82 92.7908 31.4972 92.3514C32.4128 91.7605 33.3805 91.7246 34.4 92.2435ZM30.7925 96.7373C30.8228 97.2139 31.1584 97.6153 31.7995 97.9416L33.0998 98.6035L35.3418 94.1988L34.0415 93.5369C33.376 93.1982 32.745 93.2901 32.1484 93.8128C31.8216 94.1 31.5316 94.4923 31.2784 94.9899C30.9288 95.6767 30.7668 96.2592 30.7925 96.7373Z" fill="#1D2024"/>
<path d="M27.2448 93.0018C27.0118 93.0474 26.7987 93.0051 26.6055 92.8751C26.4094 92.7431 26.2872 92.5597 26.2388 92.3249C26.1885 92.0929 26.2293 91.8788 26.3613 91.6828C26.4932 91.4867 26.6757 91.3659 26.9086 91.3203C27.1396 91.2776 27.3532 91.3222 27.5493 91.4542C27.7453 91.5861 27.8685 91.7681 27.9188 92.0001C27.9644 92.2331 27.9212 92.4476 27.7892 92.6437C27.6592 92.8369 27.4777 92.9563 27.2448 93.0018Z" fill="#1D2024"/>
<path d="M19.9931 85.4643L22.6318 88.0274L23.9885 86.6307L20.9813 83.7096L21.9299 82.733L26.0465 86.7316L20.7699 92.1638L16.786 88.2941L17.7204 87.3322L20.5949 90.1244L21.7154 88.9709L19.0767 86.4078L19.9931 85.4643Z" fill="#1D2024"/>
<path d="M17.5871 77.0169L18.7344 78.5583L17.5244 81.2522L20.5014 80.9322L21.5996 82.4077L17.0503 82.7579L15.4541 86.8346L14.3252 85.3179L15.4926 82.7646L12.6901 83.1212L11.5981 81.654L15.9119 81.3316L17.5871 77.0169Z" fill="#1D2024"/>
<path d="M13.286 74.7075L14.026 76.1352L16.4435 74.8821L17.167 76.2779L10.4436 79.763L8.92566 76.8346C8.57573 76.1595 8.47006 75.5315 8.60865 74.9504C8.74725 74.3693 9.17993 73.8904 9.90671 73.5136C10.7004 73.1022 11.3655 73.0121 11.9019 73.2433C12.4384 73.4744 12.8998 73.9625 13.286 74.7075ZM11.5451 74.7766C11.2894 74.6777 10.9867 74.7188 10.637 74.9001C10.2873 75.0814 10.086 75.3034 10.0331 75.5661C9.97871 75.8258 10.0374 76.1214 10.2092 76.4528L10.8878 77.7619L12.8674 76.7358L12.1888 75.4267C12.017 75.0952 11.8025 74.8785 11.5451 74.7766Z" fill="#1D2024"/>
<path d="M6.96148 72.623L6.45599 71.1235L12.3421 69.1393L11.144 65.5853L12.4342 65.1503L14.1377 70.2039L6.96148 72.623Z" fill="#1D2024"/>
<path d="M11.8269 60.8545C11.997 61.9234 11.8362 62.7866 11.3443 63.4441C10.7512 64.3154 9.78318 64.858 8.44029 65.0717C7.07035 65.2898 5.98175 65.0747 5.17447 64.4263C4.50275 63.954 4.08181 63.1834 3.91166 62.1145C3.74151 61.0456 3.90238 60.1824 4.39426 59.5249C4.96085 58.6613 5.92912 58.1205 7.29906 57.9024C8.64194 57.6886 9.73028 57.9021 10.5641 58.5428C11.2358 59.0151 11.6567 59.7857 11.8269 60.8545ZM9.5826 59.6979C9.06834 59.4086 8.39008 59.3311 7.54782 59.4651C6.70894 59.5987 6.09026 59.8844 5.69176 60.3224C5.28934 60.7576 5.1374 61.2847 5.23594 61.9037C5.33448 62.5227 5.64141 62.9802 6.15675 63.2762C6.67209 63.5723 7.35089 63.6532 8.19315 63.5191C9.03541 63.3851 9.65552 63.0973 10.0535 62.656C10.4514 62.2146 10.6011 61.6844 10.5026 61.0654C10.4041 60.4463 10.0974 59.9905 9.5826 59.6979Z" fill="#1D2024"/>
<path d="M8.12125 52.89L8.08342 54.5234L11.0522 54.5921L11.0164 56.1382L3.44542 55.9628L3.53145 52.2492C3.55401 51.7187 3.62851 51.3127 3.75494 51.0313C3.88146 50.7464 4.06344 50.5074 4.30088 50.3142C4.49645 50.1543 4.71177 50.029 4.94684 49.9386C5.18191 49.8481 5.44839 49.8063 5.7463 49.8132C6.10585 49.8215 6.45816 49.9205 6.80322 50.11C7.14487 50.2995 7.38276 50.6048 7.5169 51.0259C7.66539 50.6799 7.87142 50.438 8.13499 50.3002C8.39522 50.1589 8.79071 50.0944 9.32147 50.1067L9.82997 50.1185C10.1758 50.1265 10.4107 50.1182 10.5346 50.0937C10.7307 50.0571 10.8768 49.9646 10.9727 49.8161L11.1628 49.8205L11.1224 51.5617C10.9535 51.6057 10.8175 51.6368 10.7143 51.655C10.501 51.6912 10.2831 51.7084 10.0604 51.7067L9.35649 51.7006C8.87352 51.6963 8.54958 51.7779 8.38467 51.9454C8.21985 52.1094 8.13204 52.4243 8.12125 52.89ZM6.76696 51.8976C6.63044 51.5793 6.34987 51.4152 5.92527 51.4053C5.46642 51.3947 5.15471 51.5399 4.99013 51.841C4.89714 52.0102 4.84667 52.266 4.83874 52.6084L4.79615 54.4472L6.83014 54.4943L6.87167 52.7017C6.87992 52.3456 6.84501 52.0776 6.76696 51.8976Z" fill="#1D2024"/>
<path d="M9.03483 42.9875L8.34558 46.601L10.2583 46.9658L11.0438 42.8477L12.3812 43.1028L11.3059 48.74L3.86703 47.3211L4.90763 41.8655L6.22483 42.1168L5.47398 46.0533L7.05361 46.3546L7.74286 42.7411L9.03483 42.9875Z" fill="#1D2024"/>
<path d="M9.68175 37.7091C9.58602 37.4919 9.58029 37.2747 9.66456 37.0576C9.75007 36.8373 9.90204 36.6776 10.1205 36.5787C10.3357 36.4785 10.5535 36.4712 10.7738 36.5567C10.9941 36.6422 11.1522 36.7936 11.2479 37.0108C11.3404 37.2267 11.3439 37.4448 11.2584 37.6652C11.1729 37.8855 11.0226 38.0457 10.8073 38.1459C10.5901 38.2416 10.3714 38.2468 10.1511 38.1612C9.93392 38.077 9.77749 37.9262 9.68175 37.7091Z" fill="#1D2024"/>
<path d="M15.9413 27.6831L14.0008 30.8083L15.6551 31.8355L17.8665 28.2738L19.0232 28.992L15.996 33.8675L9.56227 29.8727L12.4919 25.1544L13.6311 25.8617L11.5172 29.2663L12.8834 30.1145L14.8239 26.9893L15.9413 27.6831Z" fill="#1D2024"/>
<path d="M23.6431 23.5585L22.5997 24.7482L16.5161 23.5266L20.5603 27.0735L19.588 28.1821L13.8945 23.1887L14.9887 21.941L20.9519 23.1596L16.9773 19.6737L17.9496 18.5651L23.6431 23.5585Z" fill="#1D2024"/>
<path d="M25.1584 19.2395L21.7534 15.1818L22.9656 14.1646L26.354 18.2026C26.768 18.6959 27.0108 19.1584 27.0824 19.5901C27.2033 20.3203 26.8872 21.0014 26.1342 21.6333C25.3812 22.2651 24.711 22.4922 24.1236 22.3144C23.534 22.134 22.953 21.7027 22.3806 21.0205L22.2683 20.8867L23.4135 19.9256L23.5258 20.0594C23.9128 20.4993 24.2267 20.7747 24.4674 20.8857C24.7085 20.9919 24.9734 20.9239 25.262 20.6817C25.548 20.4417 25.6532 20.1835 25.5777 19.9071C25.5337 19.7427 25.394 19.5202 25.1584 19.2395Z" fill="#1D2024"/>
<path d="M32.0804 17.3751C31.1505 17.929 30.2891 18.0993 29.4962 17.8859C28.4672 17.6577 27.6047 16.9595 26.9088 15.7913C26.1988 14.5995 25.9955 13.5087 26.2988 12.5186C26.4887 11.7198 27.0486 11.0434 27.9784 10.4894C28.9083 9.93549 29.7697 9.76521 30.5626 9.97859C31.5746 10.185 32.4356 10.8841 33.1456 12.0759C33.8415 13.2441 34.0463 14.3341 33.76 15.3459C33.5701 16.1447 33.0102 16.8211 32.0804 17.3751ZM32.3236 14.862C32.4018 14.2772 32.2226 13.6184 31.7861 12.8857C31.3514 12.156 30.8568 11.6871 30.3023 11.4792C29.7491 11.2666 29.2032 11.3207 28.6647 11.6415C28.1262 11.9622 27.8149 12.4168 27.7308 13.0051C27.6467 13.5934 27.8229 14.254 28.2594 14.9867C28.6959 15.7194 29.1929 16.1888 29.7503 16.395C30.3077 16.6012 30.8556 16.5439 31.3941 16.2231C31.9326 15.9023 32.2424 15.4486 32.3236 14.862Z" fill="#1D2024"/>
<path d="M38.8233 5.76624L38.1523 11.0867L39.1722 13.744L37.6948 14.311L36.6749 11.6537L32.5349 8.17978L34.2761 7.5115L36.9258 10.0276L37.1492 6.40874L38.8233 5.76624Z" fill="#1D2024"/>
<path d="M44.6707 7.74355C44.8056 7.54826 44.9876 7.42968 45.2167 7.38779C45.4492 7.34529 45.6648 7.39118 45.8634 7.52548C46.0615 7.65641 46.1817 7.83811 46.2242 8.07059C46.2667 8.30308 46.2205 8.51696 46.0856 8.71224C45.9501 8.90415 45.7661 9.02136 45.5336 9.06386C45.3011 9.10636 45.0859 9.06215 44.8878 8.93123C44.6926 8.79631 44.5737 8.61262 44.5312 8.38014C44.4893 8.15102 44.5358 7.93883 44.6707 7.74355Z" fill="#1D2024"/>
</g>
<defs>
<clipPath id="clip0_487_402">
<rect width="108.089" height="108.072" fill="white"/>
</clipPath>
</defs>
</svg>
