<svg width="177" height="70" viewBox="0 0 177 70" fill="none" xmlns="http://www.w3.org/2000/svg">
<g clip-path="url(#clip0_265_1269)">
<path d="M0 55.5873V14.8799H16.2719C19.3866 14.8799 22.0449 15.4298 24.2467 16.5296C26.4619 17.6162 28.1469 19.16 29.3015 21.1609C30.4695 23.1486 31.0535 25.4874 31.0535 28.1774C31.0535 30.8806 30.4628 33.2062 29.2813 35.1541C28.0999 37.0887 26.3881 38.5729 24.146 39.6064C21.9174 40.64 19.2188 41.1568 16.0504 41.1568H5.15545V34.2397H14.6407C16.3054 34.2397 17.6883 34.0145 18.7892 33.5639C19.8901 33.1134 20.709 32.4376 21.2461 31.5365C21.7965 30.6354 22.0717 29.5157 22.0717 28.1774C22.0717 26.8258 21.7965 25.6862 21.2461 24.7586C20.709 23.831 19.8834 23.1287 18.769 22.6517C17.6681 22.1614 16.2786 21.9162 14.6004 21.9162H8.71995V55.5873H0ZM22.2731 37.0622L32.5236 55.5873H22.8974L12.8685 37.0622H22.2731Z" fill="white"/>
<path d="M48.952 56.1836C45.7701 56.1836 43.0312 55.5475 40.7355 54.2754C38.4531 52.9901 36.6943 51.1747 35.4592 48.8292C34.224 46.4705 33.6065 43.6812 33.6065 40.4611C33.6065 37.3206 34.224 34.5644 35.4592 32.1925C36.6943 29.8205 38.433 27.972 40.675 26.6469C42.9306 25.3218 45.5754 24.6592 48.6096 24.6592C50.6503 24.6592 52.55 24.9839 54.3088 25.6332C56.081 26.2692 57.6249 27.2299 58.9406 28.5153C60.2698 29.8006 61.3035 31.4173 62.042 33.3652C62.7804 35.2998 63.1496 37.5658 63.1496 40.163V42.4886H37.03V37.2411H55.074C55.074 36.022 54.8055 34.9421 54.2685 34.0012C53.7315 33.0604 52.9864 32.325 52.0331 31.7949C51.0933 31.2516 49.9992 30.98 48.7506 30.98C47.4483 30.98 46.2937 31.2781 45.2868 31.8744C44.2933 32.4575 43.5146 33.2459 42.9507 34.2397C42.3868 35.2203 42.0982 36.3135 42.0847 37.5194V42.5084C42.0847 44.0191 42.3667 45.3243 42.9306 46.4241C43.5079 47.524 44.3201 48.3721 45.3673 48.9684C46.4145 49.5647 47.6564 49.8628 49.0929 49.8628C50.0461 49.8628 50.9188 49.7303 51.7109 49.4653C52.503 49.2002 53.181 48.8027 53.7449 48.2727C54.3088 47.7426 54.7384 47.0933 55.0338 46.3248L62.9683 46.8416C62.5656 48.7232 61.7399 50.3663 60.4913 51.771C59.2561 53.1623 57.6585 54.2489 55.6983 55.0307C53.7516 55.7993 51.5028 56.1836 48.952 56.1836Z" fill="white"/>
<path d="M80.9826 66.4639C78.2035 66.4639 75.8204 66.0862 73.8334 65.3309C71.8598 64.5889 70.289 63.5751 69.121 62.2898C67.0851 59.2043 67.1944 58.5066 66.8454 56.9032H74.7799C75.0216 57.5128 75.4042 58.0826 75.9278 58.6126C76.4514 59.1427 77.1428 59.5667 78.0021 59.8847C78.8747 60.216 79.9354 60.3816 81.184 60.3816C83.0501 60.3816 84.5874 59.9311 85.7957 59.03C87.0174 58.1422 87.6283 57.5612 87.6283 55.7662V50.1808H87.2658C86.8898 51.0289 86.326 51.8306 85.5741 52.5859C84.8223 53.3412 83.8557 53.9574 82.6742 54.4344C81.4927 54.9115 80.0831 55.15 78.4451 55.15C76.1225 55.15 74.008 54.6199 72.1015 53.5599C70.2085 52.4865 68.6981 50.85 67.5704 48.6503C66.456 46.4374 65.8989 43.6414 65.8989 40.2624C65.8989 36.8038 66.4695 33.9151 67.6106 31.5962C68.7518 29.2772 70.2689 27.5413 72.1619 26.3885C74.0684 25.2356 76.1561 24.6592 78.425 24.6592C80.1569 24.6592 81.6069 24.9507 82.7749 25.5338C83.9429 26.1036 84.8827 26.8191 85.5943 27.6805C86.3193 28.5285 86.8764 29.3633 87.2658 30.1849H87.588V25.0567H96.1065V55.8854C95.9753 58.658 95.753 59.316 94.4197 61.2901C93.1308 63.0392 91.0988 64.2576 88.8164 65.1321C86.5475 66.02 83.9362 66.4639 80.9826 66.4639ZM81.1638 48.7895C82.5467 48.7895 83.7147 48.4516 84.6679 47.7757C85.6346 47.0867 86.373 46.1061 86.8831 44.834C87.4067 43.5486 87.6685 42.0115 87.6685 40.2226C87.6685 38.4337 87.4135 36.8833 86.9033 35.5715C86.3931 34.2464 85.6547 33.2194 84.688 32.4906C83.7214 31.7618 82.5467 31.3974 81.1638 31.3974C79.7541 31.3974 78.566 31.775 77.5993 32.5304C76.6327 33.2724 75.901 34.306 75.4042 35.6311C74.9075 36.9562 74.6591 38.4867 74.6591 40.2226C74.6591 41.985 74.9075 43.5089 75.4042 44.7943C75.9144 46.0664 76.6461 47.0536 77.5993 47.7559C78.566 48.4449 79.7541 48.7895 81.1638 48.7895Z" fill="white"/>
<path d="M101.232 55.5873V25.0567H109.811V55.5873H101.232Z" fill="white"/>
<path d="M128.958 56.1836C125.83 56.1836 123.125 55.5276 120.842 54.2158C118.573 52.8907 116.821 51.0488 115.586 48.6901C114.351 46.3181 113.734 43.5685 113.734 40.4413C113.734 37.2875 114.351 34.5313 115.586 32.1726C116.821 29.8006 118.573 27.9587 120.842 26.6469C123.125 25.3218 125.83 24.6592 128.958 24.6592C132.086 24.6592 134.785 25.3218 137.054 26.6469C139.336 27.9587 141.095 29.8006 142.33 32.1726C143.565 34.5313 144.183 37.2875 144.183 40.4413C144.183 43.5685 143.565 46.3181 142.33 48.6901C141.095 51.0488 139.336 52.8907 137.054 54.2158C134.785 55.5276 132.086 56.1836 128.958 56.1836ZM128.998 49.6243C130.422 49.6243 131.61 49.2267 132.563 48.4317C133.516 47.6234 134.234 46.5235 134.718 45.1322C135.215 43.7408 135.463 42.1573 135.463 40.3816C135.463 38.606 135.215 37.0225 134.718 35.6311C134.234 34.2397 133.516 33.1399 132.563 32.3316C131.61 31.5233 130.422 31.1191 128.998 31.1191C127.562 31.1191 126.354 31.5233 125.374 32.3316C124.407 33.1399 123.675 34.2397 123.178 35.6311C122.695 37.0225 122.453 38.606 122.453 40.3816C122.453 42.1573 122.695 43.7408 123.178 45.1322C123.675 46.5235 124.407 47.6234 125.374 48.4317C126.354 49.2267 127.562 49.6243 128.998 49.6243Z" fill="white"/>
<path d="M156.639 37.9368V55.5873H148.06V25.0567H156.236V30.4433H156.599C157.283 28.6677 158.431 27.263 160.042 26.2295C161.653 25.1826 163.607 24.6592 165.903 24.6592C168.051 24.6592 169.924 25.123 171.521 26.0506C173.119 26.9781 174.361 28.3033 175.247 30.0259C176.133 31.7353 176.576 33.776 176.576 36.1479V55.5873H167.997V37.6585C168.01 35.7901 167.527 34.3325 166.547 33.2857C165.567 32.2256 164.218 31.6955 162.499 31.6955C161.345 31.6955 160.324 31.9407 159.438 32.431C158.566 32.9213 157.881 33.6368 157.384 34.5777C156.901 35.5052 156.652 36.6249 156.639 37.9368Z" fill="white"/>
<path fill-rule="evenodd" clip-rule="evenodd" d="M105.431 22.4288C102.012 19.0214 95.9853 10.8753 99.2292 5.55026C99.8653 4.36163 101.996 1.98438 105.431 1.98438C108.866 1.98438 110.996 4.36163 111.632 5.55026C114.876 10.8753 108.85 19.0214 105.431 22.4288ZM105.428 12.7287C107.43 12.7287 109.053 11.1112 109.053 9.11601C109.053 7.12077 107.43 5.50331 105.428 5.50331C103.426 5.50331 101.803 7.12077 101.803 9.11601C101.803 11.1112 103.426 12.7287 105.428 12.7287Z" fill="white"/>
</g>
<defs>
<clipPath id="clip0_265_1269">
<rect width="176.576" height="69.44" fill="white"/>
</clipPath>
</defs>
</svg>
