<svg width="295" height="298" viewBox="0 0 295 298" fill="none" xmlns="http://www.w3.org/2000/svg">
<path d="M144.983 238.017C145.466 234.182 140.476 230.395 133.838 229.56C127.2 228.724 121.427 231.156 120.944 234.991C120.461 238.826 125.451 242.613 132.089 243.449C138.728 244.284 144.5 241.853 144.983 238.017Z" fill="black"/>
<path d="M232.952 83.986C236.087 83.986 239.586 83.3107 241.738 81.0632C249.272 73.2081 230.007 68.2678 224.09 73.6574C217.313 79.8163 223.885 83.986 232.952 83.986ZM79.7883 108.118C80.0091 108.289 80.3363 108.253 80.512 108.024C83.8286 103.712 86.995 99.2473 90.0205 94.6924C95.0112 98.1128 100.152 101.313 105.426 104.248C106.023 104.58 106.522 103.677 105.928 103.345C100.676 100.422 95.5553 97.235 90.5854 93.828C92.7087 90.601 94.7745 87.3383 96.7275 84.0263C98.4076 81.1761 99.9687 78.3581 100.599 75.2015C100.732 74.5286 99.7192 74.3375 99.5868 74.9999C98.9881 77.9973 97.4723 80.7326 95.8385 83.5022C93.8974 86.7939 91.8441 90.0368 89.734 93.2446C75.8384 83.6105 75.3536 81.3166 74.5494 82.2605C74.366 82.4782 74.3942 82.8048 74.6119 82.9882C79.2764 86.9172 84.1437 90.6272 89.1684 94.11C80.3365 107.408 78.9288 107.458 79.7883 108.118ZM107.768 262.69L93.1062 268.953C92.4785 269.219 92.8825 270.171 93.5114 269.9L108.173 263.638C108.798 263.373 108.401 262.422 107.768 262.69ZM113.895 266.169C116.509 274.081 116.208 274.692 116.93 274.692C117.274 274.692 117.527 274.358 117.423 274.023L114.881 265.863C114.678 265.212 113.693 265.519 113.895 266.169ZM120.989 263.863L131.855 269.763C132.455 270.09 132.948 269.18 132.347 268.856L121.481 262.956C120.876 262.63 120.391 263.541 120.989 263.863ZM104.841 225.131C105.233 223.644 106.861 222.555 108.381 222.755C109.908 222.95 111.194 224.42 111.19 225.96C111.189 226.246 111.42 226.478 111.705 226.478C113.052 226.478 111.826 222.157 108.513 221.731C106.464 221.45 104.369 222.872 103.843 224.869C103.667 225.539 104.674 225.776 104.841 225.131ZM155.278 197.695C150.86 197.719 147.823 199.875 148.495 202.511C149.167 205.146 153.294 207.264 157.712 207.24C162.13 207.216 165.167 205.06 164.494 202.424C163.822 199.789 159.696 197.672 155.278 197.695ZM121.953 171.069C122.212 171.069 128.264 170.075 132.205 169.038C132.851 168.862 132.619 167.88 131.941 168.038C128.867 168.851 124.985 169.547 121.873 170.043C121.249 170.142 121.323 171.069 121.953 171.069ZM150.439 116.25C149.273 119.606 148.531 123.031 148.23 126.429C148.205 126.713 148.415 126.965 148.699 126.989C148.714 126.992 148.729 126.992 148.745 126.992C149.894 126.992 148.628 124.605 151.415 116.588C151.638 115.94 150.661 115.611 150.439 116.25ZM218.415 77.707C218.412 77.4228 218.146 77.1587 217.893 77.197C214.358 77.2414 210.877 77.4309 207.545 77.7594C206.897 77.8238 206.945 78.7895 207.594 78.7895C208.032 78.7895 211.423 78.3074 217.905 78.2291C218.19 78.2251 218.418 77.9912 218.415 77.707ZM161.194 98.5557C158.817 101.148 156.705 103.94 154.919 106.852C154.561 107.438 155.446 107.973 155.798 107.393C160.396 99.9006 162.802 99.3348 161.923 98.5234C161.714 98.3319 161.388 98.346 161.194 98.5557ZM141.326 164.228C140.749 164.589 141.293 165.461 141.873 165.103C144.965 163.172 147.402 160.638 148.892 157.342C149.172 156.725 148.234 156.289 147.951 156.919C147.719 157.431 147.457 157.937 147.172 158.419C145.837 160.684 143.87 162.64 141.326 164.228ZM163.058 60.9886C160.609 57.3148 157.603 56.9069 155.283 61.0914C154.26 62.941 153.384 64.8575 152.583 66.804C148.455 57.5349 143.062 46.5682 138.508 55.7396C135.27 62.2686 131.921 69.0172 130.505 76.3484C130.452 76.6286 130.634 76.9007 130.914 76.9531C130.947 76.9612 130.98 76.9632 131.013 76.9632C131.255 76.9632 131.47 76.7919 131.519 76.546C132.908 69.3518 136.225 62.6657 139.434 56.1992C140.66 53.7322 142.017 52.4517 144.127 54.2097C146.281 55.9977 147.633 58.602 148.94 61.3373C151.005 65.6639 151.845 67.7379 152.061 68.0741C150.967 70.9314 150.091 73.871 149.485 76.8866C149.349 77.5551 150.363 77.7567 150.497 77.0882C151.589 71.6538 153.504 66.4391 156.186 61.5913C158.052 58.2214 160.078 58.3826 162.199 61.5611C166.162 67.4959 165.466 70.1341 166.616 69.761C166.888 69.6764 167.038 69.3861 166.952 69.114C166.043 66.2315 164.733 63.4982 163.058 60.9886Z" fill="black"/>
<path d="M265.543 152.202C266.457 152.202 267.394 151.882 268.198 151.277L277.487 144.238C277.488 144.238 277.489 144.236 277.49 144.236C279.558 142.646 280.317 139.541 279.183 137.318L273.607 126.375C273.032 125.27 272.082 124.544 270.981 124.341C261.098 121.481 254.113 120.051 251.745 119.497L255.977 93.1944C256.531 89.7423 253.109 86.9405 249.783 88.3349L252.217 57.3602C252.6 52.5613 248.32 48.7189 243.625 49.5674L184.586 60.158C183.392 60.3838 182.148 60.2407 180.987 59.7368C119.532 33.2161 122.624 33.73 119.702 33.6994L119.693 33.6331C119.602 32.9639 118.578 33.0895 118.671 33.7702L118.673 33.7852C116.786 34.0265 122.616 31.5718 57.693 61.2425C54.6976 62.6092 52.9681 65.8363 53.4872 69.0877C53.9195 71.7948 66.6003 151.192 67.0327 153.899C65.4713 152.519 64.3455 152.333 63.1662 152.361C63.5228 152.061 63.8195 151.746 63.9524 151.4C64.8909 148.957 60.6475 143.367 59.4082 141.328C56.348 136.287 54.1368 135.608 49.0266 136.425C37.0489 138.361 25.1504 142.351 17.8996 152.069C12.7196 159.006 15.2457 161.361 19.5028 169.043C25.7774 180.39 26.0182 181.628 27.1507 180.726C36.0534 195.814 30.8713 188.482 40.4041 203.869C42.0187 206.478 43.6887 209.173 45.2388 211.87C48.2452 217.088 50.1108 223.491 55.5452 226.931C60.6938 230.172 66.3673 227.789 66.412 222.877C68.4993 224.593 71.5299 225.149 73.9972 224.101C76.922 222.882 78.7341 219.604 78.4166 216.486C80.4731 217.966 82.6614 219.251 85.1905 219.251C88.4808 219.251 90.4349 216.568 91.0753 213.663C93.3388 216.949 95.8804 220.197 99.0889 224.355C100.268 225.88 101.542 227.365 102.994 228.545C83.2579 236.853 84.2312 236.294 83.9427 236.937C83.8369 237.173 83.8329 237.425 83.9296 237.667C83.9561 237.736 84.0023 237.802 84.0476 237.856C84.0623 237.88 84.0928 237.896 84.1094 237.919C83.5742 238.507 83.3535 239.246 83.2113 240.076C82.8663 242.343 83.2399 243.973 85.5849 245.071C86.8272 245.647 127.791 257.97 128.002 258.034C131.16 258.715 134.504 259.086 137.889 259.066C152.213 258.985 162.116 252.156 160.441 243.68C161.857 241.245 162.15 238.74 161.507 236.234C159.24 227.356 145.432 220.178 130.669 220.178C120.953 220.178 115.758 223.286 114.634 223.642C114.061 219.166 111.678 213.885 110.374 211.511C109.23 209.41 107.957 207.296 106.6 205.149L137.313 190.485C138.856 189.719 140.708 189.658 142.382 190.313L147.5 192.381C145.808 192.883 145.937 192.923 142.56 194.329C121.906 202.941 123.581 202.312 123.418 202.694C123.299 202.969 123.361 203.304 123.497 203.442C123.52 203.478 123.56 203.503 123.587 203.536C123.09 204.165 122.816 205.821 123.172 206.761C123.821 208.358 125.984 208.692 127.837 209.259C154.275 217.203 153.805 217.618 159.81 217.618C169.279 217.559 175.895 213.086 174.98 207.5C175.08 207.336 175.212 207.185 175.297 207.016C175.796 206.031 176.019 204.982 176.012 203.923C191.894 210.181 192.001 210.971 195.002 210.638L227.22 206.759C225.79 215.053 224.522 222.4 223.534 228.208C214.834 224.309 202.638 232.724 202.269 241.852C202.243 242.514 203.271 242.605 203.301 241.892C203.46 237.937 206.045 233.908 210.213 231.114C218.27 225.741 225.921 228.625 227.81 233.954C227.997 234.473 228.77 234.376 228.812 233.817C229.028 230.815 231.292 228.203 234.723 227C244.57 223.529 253.17 235.493 255.282 247.062C255.404 247.734 256.419 247.548 256.298 246.877C254.12 234.954 245.255 222.495 234.642 225.953L238.093 204.48C239.761 203.244 240.885 201.321 241.051 199.144L241.516 193.195C256.094 197.337 256.483 198.12 257.919 198.12C259.566 198.12 260.932 196.929 261.212 195.355C261.249 195.148 264.876 174.893 264.928 174.607C265.222 172.892 264.175 171.247 262.553 170.803C254.745 167.542 247.55 165.651 244.5 164.719L247.308 147.187C261.785 150.823 264.095 152.202 265.543 152.202ZM270.743 125.345C271.574 125.5 272.267 126.034 272.69 126.846L278.264 137.786C279.183 139.59 278.554 142.115 276.861 143.418L267.577 150.452C266.796 151.039 265.869 151.279 265.089 151.138C259.229 149.299 253.316 147.63 247.511 146.173C246.589 145.95 245.699 145.747 244.796 145.536C244.785 145.535 244.779 145.523 244.768 145.522C244.763 145.521 244.76 145.527 244.754 145.526C242.447 144.987 240.184 144.474 238.043 144.024C228.393 141.982 218.76 140.535 209.472 139.729C207.572 139.344 206.81 137.173 207.29 135.222L211.562 118.046C212.056 116.037 213.829 114.382 215.794 114.74C228.699 116.15 241.13 118.241 251.553 120.511C258.029 121.908 264.469 123.53 270.743 125.345ZM130.673 221.21C149.314 221.21 165.008 232.625 159.826 242.69C157.042 248.155 148.69 251.723 138.547 251.779C135.314 251.781 132.001 251.454 128.792 250.769C128.585 250.707 85.1582 237.692 84.9224 237.31C85.0456 237.182 89.5239 235.35 103.955 229.261C106.787 231.165 111.697 232.072 113.737 229.338C114.593 228.192 114.842 226.553 114.734 224.722C116.269 224.231 121.174 221.21 130.673 221.21ZM112.911 228.721C111.979 229.969 110.183 230.309 107.572 229.747C104.401 229.066 102.014 226.449 99.9053 223.724C92.2726 213.829 92.2678 213.862 85.2368 202.69C85.0867 202.446 84.7682 202.382 84.5253 202.527C84.2844 202.68 84.2118 202.998 84.364 203.238C87.0113 207.446 88.7293 210.171 90.2277 212.415C89.9322 215.309 88.1717 218.356 85.0393 218.217C82.3015 218.156 79.9738 216.325 77.9191 214.844C78.3364 213.826 76.1967 214.144 69.748 204.557C69.5888 204.321 69.2683 204.256 69.0314 204.417C68.7956 204.577 68.7321 204.897 68.8913 205.133C73.8774 212.545 76.8834 214.732 77.181 215.06C77.1292 215.174 77.1072 215.299 77.1477 215.425C78.0931 218.356 76.4362 221.966 73.597 223.15C70.9988 224.254 67.6789 223.285 65.9836 220.922C65.8496 220.676 65.7135 220.453 65.5341 220.229C65.4592 220.133 65.3531 220.084 65.2439 220.058C63.0931 217.938 61.7533 214.199 61.1439 212.13C61.0633 211.853 60.779 211.702 60.5029 211.779C60.2298 211.86 60.0735 212.148 60.1542 212.42C60.9473 215.113 62.3694 218.773 64.6412 220.924C64.6854 220.966 64.7456 220.964 64.7983 220.987C64.8944 221.151 64.9877 221.318 65.0997 221.46C65.907 223.204 64.9314 225.766 63.0739 226.76C60.7095 227.991 57.9187 227.205 56.0965 226.058C50.9689 222.811 49.0787 216.467 46.1338 211.354C44.5746 208.644 42.9006 205.941 41.2809 203.327C31.6287 187.745 37.1509 195.636 27.8984 179.962C28.1965 179.639 28.4891 179.319 28.7825 178.999C28.8132 179.032 28.8187 179.081 28.859 179.106C29.0999 179.257 29.4204 179.185 29.5696 178.943C34.7621 170.626 42.1275 163.657 50.8697 158.789C63.6467 151.648 64.7554 151.078 70.3346 159.957C78.0853 172.289 98.2417 191.387 109.468 212.005C111.67 216.014 115.408 225.373 112.911 228.721ZM98.9522 194.175C93.2752 186.688 86.965 179.388 80.8447 171.984C84.9376 172.726 90.2169 174.624 93.3864 177.058C97.3413 180.043 100.243 184.329 101.558 189.122C102.502 192.644 101.144 194.071 98.9522 194.175ZM106.046 204.27C104.171 201.357 102.068 198.343 99.66 195.128C102.086 194.701 103.605 192.761 102.554 188.852C100.989 183.149 97.2617 178.192 92.6081 175.284C94.8777 173.945 97.0354 171.856 97.7605 169.513C100.887 159.52 83.0952 162.994 79.1133 169.87C68.9091 157.323 71.5577 159.092 68.2872 155.207L56.9052 83.9052C60.7884 85.6007 66.8524 85.3818 70.5976 83.0567C79.3399 77.6233 68.8762 67.453 79.3156 66.7858C82.6692 66.5705 85.9985 67.1393 89.3036 66.9067C96.5937 66.4211 99.4201 62.7905 99.994 56.7978C100.297 53.6583 100.207 48.0269 96.6653 44.593C117.666 35.1193 116.743 35.0659 118.81 34.8031L130.012 117.994C126.618 116.836 122.437 117.129 118.848 118.463C108.589 122.275 107.383 130.295 103.218 139.156C98.366 149.485 100.168 162.813 110.249 171.449C107.317 171.7 104.353 171.888 101.402 171.978C100.731 171.997 100.744 173.01 101.418 173.01C102.408 173.01 106.93 172.806 111.381 172.396C114.871 175.08 121.56 178.754 125.205 176.28C127.555 174.683 128.241 169.944 137.377 172.695C137.406 172.908 139.592 189.07 139.564 188.863C137.016 189.017 138.846 188.815 106.046 204.27ZM148.923 139.848C149.215 142.247 149.502 144.699 149.573 147.056C149.582 147.334 149.811 147.556 150.089 147.556C150.094 147.556 150.099 147.556 150.104 147.556C150.389 147.548 150.613 147.31 150.605 147.024C150.532 144.614 150.241 142.127 149.944 139.695C153.87 139.184 157.711 139.284 160.86 141.172C164.726 143.488 166.997 148.479 166.508 153.591C165.572 163.362 154.375 174.8 143.931 173.402C142.088 173.158 140.26 172.519 138.312 171.906L131.285 119.719C136.03 122.356 135.379 126.981 135.739 132.009C136.055 136.359 137.905 139.517 140.685 140.456C143.008 141.238 145.183 140.425 148.923 139.848ZM137.227 171.579C133.778 170.584 129.809 170.299 127.175 172.74C125.402 174.385 124.641 177.511 118.846 175.385C116.454 174.505 114.209 173.237 112.17 171.693C112.092 171.485 111.91 171.336 111.698 171.347C101.644 163.381 99.203 150.132 104.151 139.596C108.228 130.929 109.41 123.071 119.207 119.43C122.697 118.136 126.917 117.907 130.174 119.202L137.227 171.579ZM174.376 206.548C172.549 210.16 167.001 212.523 160.244 212.561C154.494 212.561 152.999 211.601 141.589 208.207C131.84 205.234 124.85 203.174 124.533 203.012C124.847 202.853 143.761 194.982 146.051 193.966C159.626 188.431 178.829 197.779 174.376 206.548ZM194.886 209.612C192.046 209.934 191.694 208.923 175.901 202.765C175.869 202.59 175.858 202.414 175.811 202.238C174.09 195.45 161.438 189.328 149.209 191.959C143.168 189.661 142.787 189.048 140.524 188.889C140.632 188.479 140.745 190.38 138.464 173.034C140.255 173.607 141.995 174.185 143.796 174.425C154.753 175.879 166.536 164.133 167.536 153.688C168.061 148.191 165.592 142.805 161.39 140.285C157.996 138.249 153.941 138.136 149.824 138.671C149.744 138.018 149.663 137.364 149.588 136.711C149.506 136.03 148.485 136.154 148.562 136.828C148.639 137.493 148.721 138.158 148.803 138.822C145.068 139.397 143.048 140.165 141.016 139.477C137.498 138.29 136.876 133.401 136.769 131.932C136.357 126.3 137.009 121.238 131.117 118.474L119.842 34.7442C122.26 34.8255 118.989 34.0618 180.577 60.6842C181 60.8672 181.434 60.9944 181.872 61.0955C181.842 61.6967 181.789 63.3042 181.717 65.715C176.542 66.3564 171.282 69.0658 169.032 71.9521C166.385 75.3465 165.986 81.8331 169.294 84.5624C171.023 85.9963 173.74 85.8052 174.204 87.9926C172.384 89.0734 170.594 90.2555 168.885 91.551C168.34 91.961 168.964 92.7871 169.508 92.3734C170.982 91.2563 172.522 90.2375 174.082 89.281C173.555 90.8745 171.951 92.2718 171.361 93.8287C170.552 95.9614 171.271 98.6141 173.151 100.432C175.174 102.389 177.941 103.116 180.71 103.442C179.822 138.028 178.75 181.543 178.677 184.528C178.67 184.813 178.896 185.048 179.18 185.056C179.185 185.056 179.189 185.056 179.193 185.056C179.472 185.056 179.702 184.833 179.709 184.552C179.727 183.814 180.83 139.005 181.74 103.547C192.654 104.33 204.233 96.984 207.093 91.5086C208.605 88.6161 208.55 85.27 206.953 82.9841C204.841 79.9646 200.816 79.4707 198.604 79.4445C198.511 79.4424 198.923 79.4541 197.708 79.424C197.436 79.2049 197.251 79.3161 196.981 79.3727C193.059 78.899 193.988 73.7281 192.878 70.7467C191.321 66.5855 187.165 65.3078 182.752 65.6122C182.818 63.3778 182.868 61.8807 182.897 61.2567C184.72 61.4072 181.52 61.6651 243.807 50.5834C247.885 49.8636 251.514 53.1847 251.189 57.2796L248.698 88.9694C247.884 89.6239 247.29 90.563 247.101 91.6876C246.166 96.954 244.567 106.218 242.586 117.661C234.093 116.049 225.118 114.721 215.949 113.722C213.633 113.258 211.223 115.109 210.561 117.798L206.288 134.974C205.658 137.538 206.781 140.242 209.325 140.749C218.629 141.559 228.22 143 237.829 145.032C237.836 145.034 237.843 145.035 237.849 145.037C236.892 150.657 235.901 156.418 234.907 162.204C228.887 160.741 222.018 159.264 213.94 157.695C212.827 157.395 211.67 157.673 210.843 158.427L200.877 167.278C199.759 168.249 199.425 169.82 200.046 171.188L205.826 183.653C206.241 184.557 207.071 185.242 208.085 185.494C219.389 187.409 226.614 189.303 230.088 190.099C229.155 195.531 228.253 200.77 227.403 205.698L194.886 209.612ZM197.004 80.4283C198.283 80.5527 203.649 80.0615 206.107 83.5767C207.487 85.5501 207.514 88.475 206.178 91.0309C203.517 96.1312 192.291 103.284 181.766 102.51C182.157 87.299 182.509 73.9304 182.721 66.6784C186.767 66.3665 190.51 67.3604 191.91 71.1095C192.948 73.8808 192.046 77.8894 195.11 79.8168C192.414 80.4442 189.771 81.154 187.27 82.0045C187 82.0952 186.856 82.3895 186.947 82.6576C187.283 83.6414 187.998 82.336 197.004 80.4283ZM180.737 102.388C178.21 102.081 175.716 101.478 173.868 99.6905C172.306 98.1787 171.672 95.919 172.326 94.1956C172.952 92.5387 175.213 90.7507 175.279 88.5402C176.302 87.9496 177.074 87.5237 178.173 86.9591C178.774 86.6492 178.32 85.7366 177.701 86.04C176.831 86.4881 175.97 86.9603 175.116 87.4467C174.33 84.9209 171.455 85.0074 169.951 83.7682C167.11 81.4239 167.526 75.5622 169.846 72.585C171.897 69.9572 176.853 67.4208 181.686 66.7689C181.473 74.0581 181.124 87.3158 180.737 102.388ZM240.022 199.064C239.911 200.522 239.295 201.842 238.354 202.859L239.98 192.745C240.155 192.794 240.33 192.85 240.505 192.899L240.022 199.064ZM262.217 171.777C263.387 172.099 264.114 173.24 263.91 174.432L260.196 195.173C259.95 196.557 258.582 197.339 257.381 197.024C241.386 191.624 224.745 187.265 208.298 184.486C207.623 184.317 207.049 183.843 206.762 183.22L200.984 170.757C200.555 169.811 200.784 168.727 201.558 168.052C211.997 159.034 211.781 158.184 213.708 158.699C221.82 160.277 228.686 161.755 234.699 163.216C243.52 165.351 253.81 168.271 262.217 171.777Z" fill="black"/>
<path d="M85.9594 119.689C86.2609 119.076 85.3395 118.618 85.0342 119.229C83.0981 123.127 83.1455 127.88 85.0685 131.761C82.6305 130.696 80.0645 129.971 77.4208 129.602C76.7115 129.549 76.6283 130.533 77.2777 130.626C83.073 131.434 85.8019 133.444 86.3344 133.444C86.7461 133.444 86.9912 132.983 86.7647 132.644C84.2501 128.848 83.9336 123.764 85.9594 119.689ZM98.1304 116.177C98.203 115.901 98.0377 115.619 97.7625 115.546C97.4813 115.484 97.2042 115.639 97.1326 115.915C96.2981 119.106 96.3213 122.551 97.183 125.74C95.2318 124.873 93.215 124.127 91.1731 123.516C90.5341 123.311 90.212 124.308 90.8768 124.504C96.0755 126.062 97.5312 127.201 98.0105 127.201C98.3654 127.201 98.6121 126.852 98.4993 126.52C97.3795 123.222 97.2485 119.547 98.1304 116.177ZM249.317 23.4276C248.346 29.2732 248.304 35.2054 249.189 41.0611C249.29 41.7392 250.312 41.5807 250.209 40.9079C249.34 35.1591 249.382 29.3356 250.335 23.5969C250.446 22.9195 249.43 22.759 249.317 23.4276ZM256.442 49.4042C261.67 43.3147 266.126 36.5822 269.687 29.3921C269.813 29.1361 269.709 28.8257 269.453 28.7007C269.2 28.5757 268.891 28.6765 268.762 28.9325C265.239 36.046 260.831 42.708 255.66 48.731C255.21 49.2562 256.009 49.9107 256.442 49.4042ZM264.547 58.9809L278.174 49.503C278.734 49.1118 278.146 48.2679 277.585 48.6564L263.958 58.1343C263.398 58.5237 263.986 59.3716 264.547 58.9809ZM21.683 83.8368C21.1186 91.5933 22.2343 98.1485 24.9989 103.323C30.8685 114.306 41.2616 114.228 41.0551 114.155C41.7297 114.155 41.7416 113.142 41.0692 113.123C35.1138 112.962 29.1634 108.925 25.91 102.835C23.2381 97.836 22.1627 91.4704 22.713 83.9134C23.0737 78.9663 24.5655 72.8115 29.3206 71.3494C32.5882 80.4746 37.1481 78.606 37.9963 76.6367C38.2049 76.1549 38.2684 75.5744 38.1857 74.9112C37.7291 71.2461 33.6056 69.4808 29.9948 70.1198C27.2847 61.432 29.8799 51.0511 36.8705 44.3931C44.5323 37.0962 56.8655 34.6813 67.5539 38.3701C68.1931 38.6051 68.5394 37.6181 67.8905 37.3945C56.8433 33.5767 44.0918 36.0924 36.1589 43.6473C28.9053 50.5532 26.2053 61.3232 28.993 70.3637C23.8169 71.9833 22.0758 78.4528 21.683 83.8368ZM37.1618 75.0402C37.2784 75.9732 37.0392 76.6892 36.1609 77.0358C33.4135 78.1079 31.345 73.8913 30.3335 71.1176C33.311 70.6539 36.7887 72.0383 37.1618 75.0402Z" fill="black"/>
</svg>
