<svg width="72" height="72" viewBox="0 0 72 72" fill="none" xmlns="http://www.w3.org/2000/svg">
<g clip-path="url(#clip0_487_455)">
<path d="M35.701 0C15.9842 0 0 16.0007 0 35.7377C0 55.4747 15.9842 71.4754 35.701 71.4754C55.4177 71.4754 71.402 55.4747 71.402 35.7377C71.402 16.0007 55.4177 0 35.701 0ZM35.701 65.5188C19.2705 65.5188 5.95046 52.1851 5.95046 35.7377C5.95046 19.2903 19.2705 5.95658 35.701 5.95658C52.1315 5.95658 65.4515 19.2903 65.4515 35.7377C65.4515 52.1851 52.1315 65.5188 35.701 65.5188Z" fill="#CFFF47"/>
<path d="M47.6011 29.7813C50.8883 29.7813 53.5516 27.1162 53.5516 23.8247C53.5516 20.5333 50.8892 17.8682 47.6011 17.8682C44.313 17.8682 41.6506 20.5333 41.6506 23.8247C41.6506 27.1153 44.313 29.7813 47.6011 29.7813Z" fill="#CFFF47"/>
<path d="M23.801 29.7813C27.0882 29.7813 29.7515 27.1162 29.7515 23.8247C29.7515 20.5333 27.0891 17.8682 23.801 17.8682C20.5139 17.8682 17.8506 20.5333 17.8506 23.8247C17.8506 27.1162 20.513 29.7813 23.801 29.7813Z" fill="#CFFF47"/>
<path d="M53.5515 35.7378C51.9084 35.7378 50.5767 37.0708 50.5767 38.7156C50.5767 46.5476 43.5249 53.6066 35.701 53.6066C27.8771 53.6066 20.8253 46.5476 20.8253 38.7156C20.8253 37.0708 19.4937 35.7378 17.8505 35.7378C16.2074 35.7378 14.8757 37.0708 14.8757 38.7156C14.8757 49.8372 24.5918 59.5623 35.701 59.5623C46.8103 59.5623 56.5263 49.8363 56.5263 38.7156C56.5263 37.0708 55.1946 35.7378 53.5515 35.7378Z" fill="#CFFF47"/>
</g>
<defs>
<clipPath id="clip0_487_455">
<rect width="71.402" height="71.4754" fill="white"/>
</clipPath>
</defs>
</svg>
